<svg aria-hidden="true" style="position: absolute; width: 0; height: 0; overflow: hidden;" version="1.1" xmlns="http://www.w3.org/2000/svg" xmlns:xlink="http://www.w3.org/1999/xlink">
<defs>
<symbol id="icon-close" viewBox="0 0 32 32">
<path d="M32.030 3.226l-3.226-3.226-12.789 12.789-12.789-12.789-3.226 3.226 12.789 12.789-12.789 12.789 3.226 3.226 12.789-12.789 12.789 12.789 3.226-3.226-12.789-12.789 12.789-12.789z"></path>
</symbol>
<symbol id="icon-antenna" viewBox="0 0 32 32">
<path d="M30.778 22.101l-8.445-8.507 0.937-4.617c0.225 0.090 0.485 0.144 0.758 0.146h0.007c0.008 0 0.017 0 0.026 0 1.193 0 2.159-0.967 2.159-2.159s-0.967-2.159-2.159-2.159c-1.193 0-2.159 0.967-2.159 2.159 0 0.259 0.046 0.508 0.13 0.739l-0.005-0.015-4.961 0.606-8.092-8.134c-0.096-0.098-0.229-0.159-0.377-0.16h-0c-0.14 0.001-0.274 0.057-0.374 0.155l-1.512 1.504c-0.096 0.097-0.156 0.23-0.156 0.377s0.060 0.281 0.156 0.377v0l0.814 0.825c-1.143 2.063-1.816 4.523-1.816 7.14 0 4.106 1.656 7.826 4.337 10.527l-0.001-0.001c0.043 0.041 0.092 0.074 0.146 0.097-0.032 0.164-0.051 0.353-0.052 0.546v6.189h-6.401c-1.473 0.001-2.666 1.194-2.668 2.667v1.067c0 0.295 0.239 0.534 0.534 0.534h24.538c0.294 0 0.533-0.239 0.533-0.534v-1.067c-0.002-1.472-1.195-2.665-2.667-2.667h-6.401v-2.742c0.916 0.201 1.968 0.317 3.047 0.32h0.002c2.58-0.003 5.006-0.663 7.118-1.822l-0.077 0.039 0.818 0.823c0.099 0.101 0.235 0.159 0.376 0.16 0.14-0.001 0.274-0.057 0.374-0.155l1.512-1.504c0.096-0.097 0.156-0.23 0.156-0.377s-0.060-0.281-0.156-0.377v0zM23.284 6.234c0.193-0.192 0.459-0.31 0.752-0.31 0.589 0 1.067 0.478 1.067 1.067s-0.478 1.067-1.067 1.067c-0 0-0 0-0.001 0h-0.003c-0.587-0.003-1.061-0.48-1.061-1.067 0-0.296 0.12-0.563 0.314-0.756l0-0h-0.002zM22.028 9.739l-0.599 2.946-1.175-1.183 1.774-1.764zM21.422 8.837l-1.92 1.909-1.486-1.494 3.406-0.416zM24.008 28.805c0.884 0 1.6 0.716 1.6 1.6v0 0.534h-23.47v-0.534c0-0.884 0.716-1.6 1.6-1.6v0h20.27zM16.54 26.671v1.067h-5.334v-1.067h5.334zM11.206 25.604v-4.054c0-1.294 1.197-2.347 2.667-2.347s2.667 1.053 2.667 2.347v4.054h-5.334zM17.607 23.908v-2.358c0-1.882-1.675-3.414-3.734-3.414-0.017-0-0.038-0-0.058-0-1.353 0-2.54 0.707-3.214 1.771l-0.009 0.016c-2.36-2.482-3.812-5.847-3.812-9.552 0-2.315 0.567-4.497 1.569-6.415l-0.036 0.077 18.605 18.712c-1.823 0.947-3.98 1.502-6.267 1.502-1.079 0-2.129-0.124-3.136-0.357l0.093 0.018zM28.898 23.224l-21.060-21.184 0.754-0.752 7.936 7.981c0.004 0 0.006 0.007 0.009 0.010l13.118 13.194-0.757 0.752z"></path>
<path  d="M13.878 20.27h-0.005c-0.001 0-0.002 0-0.002 0-0.884 0-1.6 0.716-1.6 1.6s0.715 1.599 1.598 1.6h0.005c0.001 0 0.001 0 0.002 0 0.884 0 1.6-0.716 1.6-1.6s-0.715-1.599-1.598-1.6h-0zM14.251 22.249c-0.096 0.096-0.23 0.155-0.376 0.155-0.295 0-0.534-0.239-0.534-0.534s0.238-0.533 0.532-0.534h0c0.293 0.002 0.53 0.24 0.53 0.534 0 0.148-0.060 0.281-0.157 0.378v0h0.005z"></path>
</symbol>
<symbol id="icon-astronaut" viewBox="0 0 32 32">
<path  d="M31.979 4.525c-0.064-0.191-0.227-0.332-0.427-0.362l-0.003-0-1.911-0.278-0.855-1.732c-0.179-0.365-0.777-0.365-0.956 0l-0.855 1.732-1.911 0.278c-0.26 0.039-0.457 0.26-0.457 0.528 0 0.15 0.062 0.285 0.161 0.382l1.384 1.348-0.326 1.903c-0.034 0.2 0.048 0.402 0.212 0.522 0.166 0.12 0.383 0.135 0.562 0.040l1.709-0.899 1.709 0.899c0.072 0.038 0.157 0.061 0.248 0.061 0.295 0 0.534-0.239 0.534-0.534 0-0.031-0.003-0.062-0.008-0.092l0 0.003-0.326-1.903 1.383-1.348c0.099-0.097 0.161-0.233 0.161-0.382 0-0.059-0.009-0.115-0.027-0.168l0.001 0.004zM29.516 5.852c-0.126 0.122-0.183 0.299-0.153 0.472l0.191 1.114-1-0.526c-0.072-0.039-0.158-0.062-0.249-0.062s-0.177 0.023-0.252 0.063l0.003-0.001-1 0.526 0.191-1.114c0.005-0.027 0.008-0.059 0.008-0.091 0-0.149-0.061-0.285-0.16-0.382l-0-0-0.811-0.789 1.119-0.163c0.174-0.025 0.324-0.134 0.402-0.292l0.5-1.013 0.5 1.013c0.078 0.158 0.228 0.267 0.402 0.292l1.119 0.162-0.809 0.79zM26.138 20.525h-1.067v1.067h1.067v-1.067zM26.138 22.66h-1.067v1.066h1.067v-1.066zM27.204 21.593h-1.067v1.067h1.067v-1.067zM25.071 21.593h-1.067v1.067h1.067v-1.067zM22.404 26.393h-1.067v1.067h1.067v-1.067zM22.404 28.527h-1.067v1.067h1.067v-1.067zM23.471 27.461h-1.067v1.067h1.067v-1.067zM21.337 27.461h-1.067v1.067h1.067v-1.067zM16.003 24.26h-1.067v1.067h1.067v-1.067zM16.003 26.393h-1.067v1.067h1.067v-1.067zM17.069 25.326h-1.067v1.067h1.067v-1.067zM14.936 25.326h-1.067v1.067h1.067v-1.067zM5.867 6.123h-1.067v1.067h1.067v-1.067zM5.867 8.257h-1.067v1.067h1.067v-1.066zM6.934 7.19h-1.067v1.067h1.067v-1.067zM4.801 7.19h-1.067v1.067h1.067v-1.067z"></path>
<path  d="M24.719 14.162c-0.28-0.376-0.699-0.636-1.179-0.704l-0.009-0.001c-0.076-0.012-0.164-0.018-0.254-0.018-0.411 0-0.789 0.139-1.090 0.373l0.004-0.003-1.253 0.96-1.898 1.417-1.358-0.541c2.421-1.086 4.114-3.509 4.114-6.321 0-3.824-3.123-6.935-6.962-6.935s-6.963 3.111-6.963 6.935c0 1.386 0.415 2.675 1.12 3.759l-2.769-0.024c-0.009 0-0.016 0.005-0.023 0.005-0.057 0.003-0.11 0.014-0.159 0.033l0.004-0.001c-0.013 0.005-0.026 0.007-0.038 0.013-0.006 0.003-0.013 0.003-0.019 0.006l-3.233 1.596c-0 0-0.001 0-0.001 0.001l-1.893 0.91c-0.024 0.011-0.045 0.023-0.065 0.036l0.001-0.001c-0.482 0.324-0.795 0.867-0.795 1.483 0 0.297 0.073 0.577 0.201 0.823l-0.005-0.010c0.22 0.424 0.593 0.742 1.044 0.885l0.013 0.003c0.161 0.053 0.345 0.083 0.537 0.083 0.308 0 0.598-0.078 0.851-0.216l-0.009 0.005 1.388-0.738 2.264-1.17 1.357-0.008-5.443 5.416c0 0.001-0.001 0.001-0.001 0.001l-1.339 1.333c-0.303 0.299-0.491 0.715-0.491 1.174 0 0.002 0 0.003 0 0.005v-0c0.002 0.92 0.748 1.664 1.667 1.664 0.001 0 0.002 0 0.002 0h-0c0.428 0 0.855-0.162 1.181-0.486l1.315-1.309 1.741-1.3 0.901 0.897-3.102 3.089c-0.303 0.299-0.491 0.715-0.491 1.174 0 0.001 0 0.003 0 0.004v-0c0 0.445 0.174 0.864 0.491 1.179 0.302 0.3 0.717 0.485 1.176 0.485 0.001 0 0.002 0 0.003 0h-0c0.428 0 0.855-0.162 1.181-0.485l4.489-4.473c0.007-0.006 0.016-0.009 0.022-0.016l5.167-5.659 3.472 0.494c0.025 0.004 0.050 0.006 0.075 0.006 0.064 0 0.127-0.016 0.187-0.038 0.017-0.006 0.032-0.015 0.049-0.023 0.019-0.010 0.039-0.015 0.058-0.027l3.214-2.133c0.012-0.008 0.018-0.021 0.029-0.030 0.013-0.010 0.029-0.014 0.041-0.026l1.271-1.191c0.348-0.326 0.564-0.787 0.564-1.3 0-0.4-0.132-0.769-0.355-1.067l0.003 0.005zM2.131 17.773c-0.098 0.054-0.215 0.086-0.34 0.086-0.078 0-0.153-0.013-0.224-0.036l0.005 0.001c-0.295-0.093-0.504-0.364-0.504-0.683 0-0.236 0.114-0.445 0.29-0.575l0.002-0.001 1.314-0.632 0.316 0.924 0.133 0.389-0.992 0.527zM5.628 15.945l-1.549 0.8-0.255-0.747-0.184-0.537 2.027-1.001-0.040 1.484zM20.73 9.324c0 0.919-0.219 1.785-0.599 2.56l-4.182-1.9c-0.044-0.575-0.342-1.073-0.782-1.384l-0.006-0.004 1.464-4.861c2.378 0.756 4.105 2.975 4.105 5.589zM8.94 9.324c0-3.235 2.645-5.868 5.895-5.868 0.253 0 0.5 0.022 0.745 0.053l-1.432 4.754c-0.019 0-0.037-0.006-0.057-0.006-0 0-0.001 0-0.001 0-1.032 0-1.869 0.835-1.872 1.867v0c0.003 1.032 0.84 1.867 1.872 1.867 0 0 0 0 0.001 0h-0c0.695 0 1.295-0.383 1.619-0.945l3.864 1.755c-1.075 1.447-2.795 2.39-4.738 2.39-3.251 0-5.895-2.632-5.895-5.867zM14.897 10.124c0 0.441-0.362 0.8-0.807 0.8-0 0-0.001 0-0.001 0-0.443 0-0.802-0.358-0.804-0.8v-0c0-0.441 0.361-0.8 0.806-0.8s0.806 0.359 0.806 0.8zM2.465 25.15c-0.11 0.109-0.261 0.176-0.428 0.176s-0.317-0.067-0.427-0.175l0 0c-0.109-0.108-0.176-0.257-0.176-0.422s0.067-0.314 0.176-0.422l0-0 0.962-0.959 0.852 0.848-0.959 0.955zM5.679 28.884c-0.11 0.109-0.261 0.176-0.428 0.176s-0.317-0.067-0.427-0.175l0 0c-0.109-0.108-0.176-0.257-0.176-0.422s0.067-0.315 0.176-0.422l0-0 0.963-0.959 0.852 0.848-0.96 0.956zM9.161 25.415l-0.001 0.001-1.765 1.76-0.852-0.848 1.765-1.757c0.040-0.040 0.065-0.088 0.090-0.136 0.007-0.014 0.020-0.026 0.026-0.040 0.016-0.041 0.019-0.085 0.026-0.128 0.003-0.025 0.014-0.048 0.014-0.073 0-0.035-0.013-0.070-0.020-0.105-0.006-0.032-0.006-0.064-0.019-0.096-0.025-0.053-0.055-0.098-0.092-0.138l0 0c-0.010-0.012-0.014-0.027-0.025-0.038h-0.001s0-0.001-0.001-0.002l-1.607-1.6c-0.017-0.017-0.039-0.024-0.058-0.038-0.025-0.021-0.054-0.040-0.084-0.057l-0.003-0.001c-0.026-0.013-0.058-0.023-0.090-0.031l-0.003-0.001c-0.030-0.009-0.065-0.017-0.101-0.020l-0.002-0c-0.007-0-0.015-0.001-0.023-0.001-0.026 0-0.051 0.002-0.075 0.005l0.003-0c-0.036 0.005-0.069 0.009-0.104 0.021-0.036 0.013-0.067 0.028-0.096 0.046l0.002-0.001c-0.020 0.011-0.043 0.015-0.061 0.029l-1.774 1.324-0.901-0.898 2.399-2.387 4.361 4.29-0.928 0.919zM15.982 18.397c-0.016-0.002-0.030 0.004-0.046 0.003-0.008-0-0.017-0.001-0.027-0.001-0.031 0-0.062 0.003-0.092 0.008l0.003-0c-0.070 0.011-0.132 0.035-0.187 0.070l0.002-0.001c-0.031 0.019-0.058 0.039-0.083 0.062l0-0c-0.013 0.011-0.028 0.016-0.040 0.029l-4.698 5.146-4.329-4.257 2.833-2.819c0.096-0.097 0.156-0.23 0.156-0.377 0-0.295-0.239-0.534-0.534-0.534-0.001 0-0.001 0-0.002 0h0l-2.219 0.013 0.028-1.608 3.104 0.027c1.264 1.297 3.028 2.101 4.979 2.101 0.001 0 0.002 0 0.003 0h-0c0.438 0 0.864-0.046 1.28-0.123 0.040 0.032 0.080 0.064 0.129 0.085l2.41 0.96 0.152 0.759 0.178 0.885-3.003-0.427zM20.023 18.575l-0.313-1.558 1.447-1.080 0.946 1.257-2.080 1.381zM23.777 15.744l-0.838 0.785-0.931-1.237 0.831-0.637c0.155-0.119 0.351-0.168 0.543-0.143 0.193 0.027 0.364 0.128 0.48 0.284 0.088 0.117 0.141 0.265 0.141 0.426 0 0.206-0.087 0.391-0.226 0.521l-0 0z"></path>
<path  d="M13.605 18.547l-2.143-2.134c-0.096-0.096-0.229-0.155-0.376-0.155s-0.28 0.059-0.376 0.155l-2.143 2.134c-0.097 0.097-0.156 0.231-0.156 0.378s0.060 0.281 0.156 0.378l-0-0 2.143 2.134c0.096 0.096 0.23 0.156 0.377 0.156s0.28-0.059 0.377-0.156v0l2.143-2.134c0.097-0.097 0.157-0.23 0.157-0.378s-0.060-0.281-0.157-0.378l-0-0zM11.085 20.306l-1.387-1.381 1.387-1.381 1.388 1.381-1.388 1.381zM17.167 5.071l-0.258 1.036c0.071 0.018 1.738 0.452 1.738 2.149h1.067c0-2.017-1.666-2.966-2.547-3.185zM19.714 9.324h-1.067v1.067h1.067v-1.067z"></path>
</symbol>
<symbol id="icon-clock" viewBox="0 0 32 32">
<path  d="M31.302 15.304c-0.001-8.454-6.856-15.305-15.31-15.304s-15.305 6.856-15.303 15.31c0.002 6.789 4.422 12.545 10.542 14.547l0.108 0.031c0.061 0.019 0.123 0.029 0.187 0.029 0.12 0 0.238-0.032 0.342-0.094 0.135-0.080 0.236-0.207 0.283-0.357l3.865-12.252c1.054-0.004 1.907-0.859 1.907-1.913 0-1.057-0.856-1.913-1.913-1.913-0.303 0-0.59 0.071-0.845 0.196l0.011-0.005-5.107-5.108c-0.115-0.11-0.271-0.179-0.443-0.179-0.352 0-0.638 0.286-0.638 0.638 0 0.172 0.068 0.328 0.179 0.443l-0-0 5.104 5.11c-0.121 0.241-0.191 0.525-0.191 0.825 0 0.602 0.283 1.137 0.724 1.481l0.004 0.003-3.683 11.675c-7.279-2.682-11.006-10.756-8.325-18.035s10.756-11.006 18.035-8.325c7.279 2.681 11.006 10.756 8.325 18.035-1.345 3.582-4.004 6.407-7.375 7.939l-0.088 0.036-0.398-1.875c-0.063-0.291-0.319-0.506-0.624-0.506-0.163 0-0.313 0.061-0.425 0.163l0.001-0.001-3.837 3.426c-0.132 0.117-0.214 0.287-0.214 0.477 0 0.283 0.185 0.524 0.441 0.606l0.005 0.001 4.9 1.564c0.058 0.020 0.126 0.031 0.196 0.031 0.352 0 0.637-0.285 0.637-0.637 0-0.047-0.005-0.093-0.015-0.138l0.001 0.004-0.391-1.839c5.529-2.375 9.33-7.773 9.33-14.059 0-0.011 0-0.023-0-0.034v0.002zM15.995 14.666c0.352 0 0.638 0.286 0.638 0.638s-0.286 0.638-0.638 0.638v0c-0.352 0-0.638-0.286-0.638-0.638s0.286-0.638 0.638-0.638v0zM18.095 29.533l2.185-1.949 0.603 2.841-2.788-0.892z"></path>
<path  d="M15.357 3.185v1.276c0 0.352 0.286 0.638 0.638 0.638s0.638-0.286 0.638-0.638v0-1.276c0-0.352-0.286-0.638-0.638-0.638s-0.638 0.286-0.638 0.638v0zM3.877 14.666c-0.352 0-0.638 0.286-0.638 0.638s0.286 0.638 0.638 0.638h1.276c0.352 0 0.638-0.286 0.638-0.638s-0.286-0.638-0.638-0.638h-1.276zM28.113 15.942c0.352 0 0.638-0.286 0.638-0.638s-0.286-0.638-0.638-0.638h-1.276c-0.352 0-0.638 0.286-0.638 0.638s0.286 0.638 0.638 0.638h1.276z"></path>
</symbol>
<symbol id="icon-diagram" viewBox="0 0 32 32">
<path  d="M14.928 14.967h1.066v4.798h-1.066v-4.799zM19.193 17.1h1.066v2.666h-1.066v-2.666zM10.663 18.699h1.066v1.066h-1.066v-1.066zM7.464 18.166h1.066v1.599h-1.066v-1.599z"></path>
<path  d="M1.599 28.295h25.591c0 0 0 0 0 0 0.883 0 1.599-0.716 1.599-1.599v0-2.132c0-0.883-0.716-1.599-1.599-1.599v0h-0.533v-13.296l3.028-2.869c0.207 0.104 0.452 0.166 0.711 0.166 0.888 0 1.608-0.72 1.608-1.609s-0.72-1.609-1.608-1.609c-0.888 0-1.608 0.72-1.608 1.609 0 0.247 0.056 0.481 0.155 0.69l-0.004-0.010-2.282 2.163v-1.23c0-0.883-0.716-1.599-1.599-1.599v0h-21.326c-0.883 0-1.599 0.716-1.599 1.599v0 15.994h-0.533c-0.883 0-1.599 0.716-1.599 1.599v0 2.132c0 0.883 0.716 1.599 1.599 1.599v0zM30.389 4.837c0.294 0 0.533 0.239 0.533 0.533s-0.239 0.533-0.533 0.533v0c-0.294 0-0.533-0.239-0.533-0.533s0.239-0.533 0.533-0.533v0zM3.199 6.97c0-0.294 0.239-0.533 0.533-0.533h21.326c0.294 0 0.533 0.239 0.533 0.533v2.239l-1.066 1.013v-2.186c0-0.295-0.239-0.534-0.534-0.534h-19.193c-0.294 0-0.534 0.239-0.534 0.533v13.329c0 0.294 0.239 0.533 0.534 0.533h19.193c0.295 0 0.534-0.239 0.534-0.533v-9.676l1.066-1.010v12.285h-22.392v-15.993zM7.997 13.901c-0.001 0-0.003 0-0.005 0-0.883 0-1.599 0.716-1.599 1.599s0.716 1.599 1.599 1.599c0.432 0 0.825-0.172 1.112-0.45l-0 0 1.853 0.93c0.215 0.107 0.476 0.057 0.636-0.123l3.939-4.432 3.873 2.902c0.208 0.155 0.498 0.139 0.686-0.039l3.366-3.188v8.133h-18.126v-12.263h18.126v2.661l-3.772 3.572-3.905-2.928c-0.088-0.067-0.2-0.107-0.32-0.107-0.158 0-0.3 0.069-0.398 0.178l-0 0.001-3.993 4.494-1.493-0.747c0.011-0.064 0.017-0.128 0.020-0.193 0-0.883-0.716-1.599-1.599-1.599v0zM8.53 15.5c0 0.294-0.239 0.533-0.533 0.533s-0.533-0.239-0.533-0.533v0c0-0.294 0.239-0.533 0.533-0.533s0.533 0.239 0.533 0.533v0zM11.729 24.030h5.331v0.533c0 0.294-0.238 0.533-0.533 0.533h-4.265c-0.294 0-0.533-0.239-0.533-0.533v0-0.533zM1.067 24.564c0-0.294 0.238-0.533 0.533-0.533h9.063v0.533c0 0.883 0.716 1.599 1.599 1.599v0h4.265c0.883 0 1.599-0.716 1.599-1.599v0-0.533h9.063c0.294 0 0.533 0.239 0.533 0.533v2.132c0 0.294-0.239 0.533-0.533 0.533h-25.591c-0 0-0 0-0 0-0.294 0-0.533-0.239-0.533-0.533 0 0 0 0 0 0v0-2.132z"></path>
</symbol>
<symbol id="icon-envelope" viewBox="0 0 43 32">
<path  d="M38.678 0.008h-34.677c-2.206 0-4.001 1.795-4.001 4.001v24.007c0 2.206 1.795 4.001 4.001 4.001h34.677c2.206 0 4.001-1.795 4.001-4.001v-24.007c0-2.206-1.795-4.001-4.001-4.001zM38.678 2.675c0.181 0 0.355 0.037 0.512 0.104l-17.851 15.471-17.851-15.471c0.151-0.065 0.327-0.104 0.512-0.104h34.677zM38.678 29.35h-34.677c-0.737 0-1.334-0.597-1.334-1.334v0-22.42l17.797 15.426c0.233 0.203 0.539 0.327 0.875 0.327s0.642-0.124 0.877-0.328l-0.002 0.001 17.797-15.426v22.42c0 0.737-0.597 1.334-1.334 1.334v0z"></path>
</symbol>
<symbol id="icon-fb" viewBox="0 0 32 32">
<path  d="M21.34 5.315h2.925v-5.091c-1.233-0.143-2.662-0.224-4.11-0.224-0.052 0-0.104 0-0.157 0l0.008-0c-4.215 0-7.103 2.651-7.103 7.524v4.483h-4.649v5.691h4.649v14.32h5.703v-14.319h4.462l0.708-5.691h-5.171v-3.924c0-1.644 0.443-2.77 2.736-2.77z"></path>
</symbol>
<symbol id="icon-in" viewBox="0 0 32 32">
<path  d="M32.011 32.019h0.008v-11.744c0-5.744-1.238-10.169-7.952-10.169-3.229 0-5.395 1.771-6.28 3.452h-0.093v-2.915h-6.369v21.376h6.631v-10.584c0-2.787 0.528-5.483 3.98-5.483 3.4 0 3.45 3.181 3.45 5.661v10.408h6.625zM0.528 10.641h6.639v21.377h-6.639v-21.377zM3.845 0c-2.124 0-3.845 1.722-3.845 3.845v0c0 2.121 1.723 3.881 3.845 3.881 2.121 0 3.844-1.758 3.844-3.881s-1.721-3.844-3.844-3.845h-0z"></path>
</symbol>
<symbol id="icon-insta" viewBox="0 0 32 32">
<path  d="M31.986 9.413c-0.074-1.702-0.349-2.87-0.744-3.884-0.424-1.112-1.053-2.060-1.848-2.839l-0.001-0.001c-0.78-0.793-1.725-1.42-2.78-1.828l-0.054-0.018c-1.021-0.394-2.184-0.668-3.885-0.743-1.713-0.082-2.257-0.101-6.605-0.101-4.346 0-4.891 0.019-6.599 0.094-1.702 0.074-2.87 0.349-3.882 0.743-1.113 0.424-2.061 1.055-2.84 1.851l-0.001 0.001c-0.792 0.78-1.419 1.725-1.826 2.78l-0.018 0.054c-0.395 1.020-0.669 2.182-0.744 3.884-0.082 1.713-0.101 2.257-0.101 6.605 0 4.346 0.019 4.891 0.094 6.599 0.075 1.702 0.351 2.87 0.744 3.884 0.427 1.111 1.056 2.058 1.85 2.839l0.001 0.001c0.8 0.813 1.771 1.444 2.834 1.844 1.020 0.395 2.184 0.671 3.884 0.744 1.708 0.075 2.252 0.094 6.599 0.094 4.348 0 4.892-0.019 6.599-0.094 1.702-0.074 2.87-0.349 3.884-0.743 2.159-0.851 3.835-2.527 4.667-4.63l0.019-0.055c0.394-1.020 0.669-2.184 0.744-3.884 0.075-1.708 0.093-2.253 0.093-6.599s-0.006-4.891-0.080-6.599zM29.105 22.487c-0.070 1.564-0.333 2.408-0.552 2.971-0.552 1.4-1.639 2.487-3.003 3.026l-0.036 0.013c-0.564 0.219-1.414 0.482-2.971 0.551-1.689 0.075-2.195 0.094-6.468 0.094-4.271 0-4.785-0.019-6.468-0.094-1.564-0.069-2.408-0.331-2.971-0.551-0.721-0.269-1.335-0.676-1.837-1.193l-0.001-0.001c-0.517-0.504-0.924-1.117-1.184-1.804l-0.011-0.034c-0.218-0.564-0.48-1.414-0.549-2.971-0.075-1.689-0.094-2.196-0.094-6.468 0-4.273 0.019-4.787 0.094-6.468 0.069-1.564 0.331-2.408 0.549-2.971 0.269-0.723 0.678-1.338 1.199-1.838l0.002-0.002c0.505-0.517 1.119-0.924 1.807-1.183l0.034-0.011c0.56-0.219 1.412-0.48 2.97-0.551 1.689-0.074 2.195-0.093 6.468-0.093 4.278 0 4.785 0.019 6.468 0.093 1.563 0.069 2.408 0.331 2.971 0.551 0.693 0.256 1.326 0.663 1.838 1.194 0.532 0.52 0.938 1.145 1.196 1.841 0.218 0.56 0.48 1.412 0.549 2.97 0.075 1.689 0.094 2.195 0.094 6.468 0 4.271-0.019 4.771-0.094 6.461z"></path>
<path  d="M16.069 7.787c-4.542 0.002-8.223 3.684-8.224 8.225v0c0 0 0 0.001 0 0.002 0 4.544 3.683 8.227 8.227 8.227s8.227-3.683 8.227-8.227c0-4.544-3.683-8.227-8.227-8.227-0.001 0-0.001 0-0.002 0h0zM16.069 21.347c-2.947-0-5.335-2.389-5.335-5.336s2.389-5.336 5.336-5.336c0 0 0.001 0 0.001 0h-0c2.947 0 5.337 2.389 5.337 5.337s-2.389 5.337-5.337 5.337v0zM26.54 7.462c0 1.061-0.86 1.921-1.921 1.921s-1.921-0.86-1.921-1.921v0c0-1.061 0.86-1.921 1.921-1.921s1.921 0.86 1.921 1.921v0z"></path>
</symbol>
<symbol id="icon-logo1" viewBox="0 0 29 32">
<path  d="M3.841 0l4.678 4.429h13.049v12.354l4.678 4.429v-21.211h-22.405z"></path>
<path  d="M0 4.242v20.605h21.765v-8.19l-13.108-12.41-8.657-0.005zM17.619 21.833h-14.175v-13.859h1.002v12.92h13.173v0.938zM6.268 28.668l0.524-1.079h0.438l-0.764 1.438v0.838h-0.397v-0.838l-0.764-1.437h0.439l0.524 1.079zM8.515 29.335h-0.881l-0.184 0.53h-0.411l0.859-2.276h0.355l0.861 2.276h-0.413l-0.186-0.53zM7.745 29.017h0.659l-0.33-0.944-0.33 0.944zM10.074 29.251c0-0.105 0.029-0.202 0.086-0.289 0.058-0.089 0.17-0.193 0.339-0.314-0.070-0.083-0.131-0.176-0.182-0.276l-0.004-0.008c-0.031-0.066-0.050-0.144-0.052-0.226v-0c0-0.179 0.054-0.319 0.163-0.422s0.254-0.156 0.437-0.156c0.166 0 0.301 0.049 0.406 0.147 0.106 0.097 0.16 0.218 0.16 0.361 0 0.001 0 0.002 0 0.003 0 0.096-0.027 0.186-0.074 0.262l0.001-0.002c-0.063 0.095-0.142 0.174-0.233 0.236l-0.003 0.002-0.155 0.113 0.44 0.519c0.063-0.125 0.095-0.264 0.095-0.417h0.33c0 0.28-0.065 0.51-0.197 0.689l0.334 0.396h-0.44l-0.128-0.152c-0.154 0.115-0.348 0.183-0.558 0.183-0.008 0-0.017-0-0.025-0l0.001 0c-0.225 0-0.405-0.060-0.54-0.179-0.124-0.11-0.202-0.27-0.202-0.447 0-0.007 0-0.014 0-0.021l-0 0.001zM10.827 29.593c0.128 0 0.248-0.043 0.359-0.128l-0.497-0.586-0.049 0.035c-0.125 0.095-0.188 0.203-0.188 0.325 0 0.105 0.034 0.191 0.102 0.256 0.066 0.061 0.156 0.099 0.254 0.099 0.006 0 0.013-0 0.019-0l-0.001 0zM10.617 28.127c0 0.088 0.054 0.197 0.161 0.33l0.173-0.118 0.049-0.039c0.059-0.052 0.097-0.128 0.097-0.212 0-0.003-0-0.006-0-0.009v0c0-0.001 0-0.001 0-0.002 0-0.059-0.026-0.113-0.067-0.149l-0-0c-0.042-0.040-0.099-0.064-0.162-0.064-0.003 0-0.006 0-0.009 0h0c-0.003-0-0.006-0-0.010-0-0.066 0-0.126 0.029-0.167 0.075l-0 0c-0.041 0.048-0.066 0.111-0.066 0.179 0 0.003 0 0.007 0 0.010v-0zM14.751 29.125c-0.023 0.243-0.113 0.432-0.269 0.568s-0.364 0.204-0.623 0.204c-0.181 0-0.341-0.043-0.48-0.128-0.139-0.090-0.248-0.214-0.317-0.362l-0.002-0.005c-0.074-0.16-0.117-0.347-0.117-0.544 0-0.003 0-0.005 0-0.008v0-0.213c0-0.214 0.038-0.403 0.114-0.567 0.077-0.164 0.186-0.29 0.326-0.378 0.143-0.089 0.307-0.133 0.494-0.133 0.251 0 0.453 0.069 0.606 0.205s0.243 0.329 0.268 0.578h-0.394c-0.019-0.163-0.067-0.281-0.144-0.353-0.076-0.073-0.188-0.109-0.336-0.109-0.172 0-0.304 0.063-0.397 0.189-0.092 0.125-0.138 0.309-0.141 0.552v0.202c0 0.246 0.044 0.433 0.132 0.563s0.218 0.194 0.387 0.194c0.155 0 0.272-0.035 0.35-0.105s0.128-0.186 0.149-0.348h0.394zM16.922 28.787c0 0.223-0.038 0.419-0.115 0.588-0.077 0.168-0.188 0.297-0.332 0.388-0.143 0.090-0.307 0.134-0.494 0.134-0.184 0-0.349-0.045-0.494-0.134-0.146-0.094-0.261-0.225-0.332-0.38l-0.002-0.006c-0.075-0.163-0.119-0.354-0.119-0.555 0-0.008 0-0.015 0-0.023v0.001-0.128c0-0.222 0.038-0.418 0.117-0.588s0.19-0.3 0.333-0.389c0.144-0.091 0.309-0.136 0.494-0.136s0.35 0.045 0.493 0.134c0.143 0.089 0.255 0.217 0.333 0.384s0.118 0.362 0.118 0.584v0.126zM16.526 28.668c0-0.252-0.048-0.446-0.143-0.58-0.085-0.123-0.225-0.202-0.384-0.202-0.007 0-0.015 0-0.022 0.001l0.001-0c-0.005-0-0.011-0-0.016-0-0.159 0-0.299 0.079-0.384 0.2l-0.001 0.002c-0.096 0.133-0.145 0.323-0.147 0.567v0.131c0 0.25 0.049 0.444 0.146 0.58s0.233 0.205 0.406 0.205c0.175 0 0.31-0.067 0.403-0.2 0.095-0.133 0.142-0.328 0.142-0.584v-0.118z"></path>
</symbol>
<symbol id="icon-logo2" viewBox="0 0 25 32">
<path  d="M10.451 1.806h0.084c0.156 0 0.324 0.015 0.49 0.030 0.734 0.052 1.463 0.162 2.18 0.329v-1.762c-0.652-0.172-1.42-0.3-2.207-0.357l-0.042-0.002c-0.254-0.020-0.571-0.035-0.889-0.043l-0.021-0h-0.263c-1.523 0.006-3.041 0.201-4.515 0.582-1.68 0.419-3.293 1.075-4.791 1.949v17.478c1.312-0.729 2.832-1.339 4.432-1.751l0.135-0.029c1.123-0.3 2.434-0.51 3.78-0.586l0.053-0.002h0.052c0.217-0.011 0.433-0.017 0.655-0.018v-1.791c-1.78 0.024-3.494 0.264-5.13 0.695l0.147-0.033c-0.603 0.157-1.185 0.326-1.731 0.513l-0.623 0.212v-13.628l0.266-0.128c1.89-0.918 4.097-1.513 6.426-1.649l0.047-0.002c0.008-0.001 0.018-0.001 0.028-0.001s0.019 0 0.029 0.001l-0.001-0c0.248-0.012 0.497-0.018 0.742-0.018h0.28c0.129 0.003 0.258 0.006 0.388 0.014z"></path>
<path  d="M14.841 3.652c-0.005 0-0.010 0-0.016 0-0.915 0-1.812-0.077-2.684-0.225l0.094 0.013c-0.277-0.047-0.55-0.103-0.814-0.164v17.278c1.12 0.277 2.271 0.412 3.425 0.404 1.607-0.007 3.163-0.218 4.644-0.61l-0.128 0.029c1.817-0.461 3.413-1.129 4.878-1.995l-0.085 0.047v-17.166c-1.312 0.728-2.831 1.338-4.429 1.751l-0.136 0.030c-1.551 0.399-3.146 0.603-4.747 0.609zM21.75 3.95l0.623-0.209v13.632l-0.267 0.129c-0.903 0.443-1.963 0.834-3.065 1.118l-0.119 0.026c-1.331 0.345-2.7 0.521-4.075 0.527-0.411 0-0.819-0.017-1.214-0.052l-0.427-0.038v-14.020l0.497 0.033c0.361 0.023 0.735 0.034 1.141 0.034 1.841-0.007 3.623-0.248 5.321-0.697l-0.147 0.033c0.581-0.154 1.158-0.326 1.731-0.518zM1.686 25.981c-0.167-0.173-0.401-0.281-0.661-0.281-0.011 0-0.023 0-0.034 0.001l0.002-0c-0.004-0-0.009-0-0.014-0-0.139 0-0.272 0.028-0.393 0.078l0.007-0.003c-0.237 0.095-0.42 0.28-0.51 0.512l-0.002 0.006c-0.049 0.123-0.073 0.254-0.071 0.387v2.335c-0.006 0.164 0.026 0.328 0.092 0.479 0.055 0.12 0.135 0.227 0.234 0.313 0.093 0.078 0.203 0.135 0.32 0.166 0.114 0.031 0.231 0.048 0.349 0.048 0.13 0.001 0.258-0.026 0.377-0.081 0.351-0.156 0.591-0.501 0.591-0.902v-0.261h-0.611v0.208c0 0.004 0 0.009 0 0.014 0 0.070-0.013 0.136-0.037 0.198l0.001-0.004c-0.021 0.052-0.051 0.095-0.089 0.132l-0 0c-0.070 0.054-0.159 0.088-0.255 0.089h-0c-0.011 0.001-0.023 0.002-0.036 0.002-0.103 0-0.194-0.050-0.25-0.127l-0.001-0.001c-0.051-0.082-0.082-0.182-0.082-0.289 0-0.008 0-0.016 0.001-0.024l-0 0.001v-2.178c-0.004-0.121 0.022-0.24 0.075-0.349 0.056-0.087 0.153-0.143 0.262-0.143 0.013 0 0.025 0.001 0.038 0.002l-0.001-0c0.003-0 0.007-0 0.012-0 0.107 0 0.201 0.052 0.26 0.131l0.001 0.001c0.063 0.082 0.101 0.187 0.101 0.3 0 0.005-0 0.009-0 0.014v-0.001 0.202h0.604v-0.238c0-0.003 0-0.007 0-0.011 0-0.143-0.027-0.28-0.077-0.406l0.003 0.007c-0.048-0.128-0.117-0.237-0.205-0.329l0 0zM5.312 25.955c-0.186-0.158-0.429-0.255-0.694-0.257h-0c-0.124 0-0.248 0.023-0.364 0.066-0.252 0.090-0.451 0.276-0.557 0.512l-0.002 0.006c-0.062 0.142-0.092 0.297-0.089 0.452v2.239c-0.004 0.158 0.026 0.314 0.089 0.459 0.055 0.121 0.136 0.228 0.237 0.313 0.094 0.086 0.203 0.154 0.323 0.197 0.117 0.043 0.24 0.065 0.364 0.066 0.267-0.001 0.51-0.1 0.695-0.264l-0.001 0.001c0.097-0.087 0.176-0.194 0.23-0.313 0.063-0.144 0.093-0.301 0.089-0.459v-2.24c0-0.006 0-0.014 0-0.021 0-0.156-0.033-0.304-0.092-0.438l0.003 0.007c-0.057-0.128-0.135-0.237-0.23-0.327l-0-0zM5.027 28.974c0.001 0.010 0.002 0.023 0.002 0.035 0 0.114-0.047 0.216-0.123 0.289l-0 0c-0.077 0.065-0.178 0.105-0.287 0.105s-0.21-0.040-0.288-0.105l0.001 0.001c-0.076-0.073-0.123-0.176-0.123-0.289 0-0.012 0.001-0.025 0.002-0.037l-0 0.002v-2.24c-0.001-0.010-0.001-0.022-0.001-0.034 0-0.114 0.047-0.216 0.123-0.289l0-0c0.077-0.065 0.178-0.105 0.287-0.105s0.21 0.040 0.288 0.105l-0.001-0.001c0.076 0.073 0.123 0.175 0.123 0.289 0 0.012-0.001 0.025-0.002 0.037l0-0.002v2.24zM10.075 29.975v-4.241h-0.587l-0.771 2.245h-0.010l-0.777-2.244h-0.58v4.24h0.606v-2.579h0.011l0.593 1.823h0.302l0.598-1.823h0.010v2.579h0.606zM13.516 26.032c-0.093-0.105-0.211-0.185-0.342-0.232-0.124-0.042-0.267-0.066-0.416-0.066-0.008 0-0.016 0-0.024 0l0.001-0h-0.9v4.241h0.604v-1.656h0.311c0.189 0.009 0.376-0.031 0.545-0.116 0.139-0.078 0.251-0.188 0.33-0.32l0.002-0.004c0.070-0.113 0.117-0.238 0.139-0.369 0.021-0.133 0.033-0.287 0.033-0.444 0-0.013-0-0.027-0-0.040l0 0.002c0.006-0.203-0.014-0.407-0.059-0.606-0.043-0.153-0.12-0.284-0.223-0.39l0 0zM13.205 27.324c-0.003 0.081-0.023 0.157-0.057 0.224l0.001-0.003c-0.035 0.065-0.089 0.116-0.154 0.147l-0.002 0.001c-0.075 0.034-0.162 0.054-0.254 0.054-0.011 0-0.022-0-0.033-0.001l0.002 0h-0.276v-1.442h0.311c0.009-0 0.019-0.001 0.029-0.001 0.088 0 0.172 0.020 0.247 0.055l-0.004-0.002c0.062 0.036 0.111 0.090 0.141 0.154l0.001 0.002c0.033 0.074 0.051 0.155 0.053 0.236v0.282c0 0.098 0.006 0.201 0 0.291h-0.006zM16.378 25.734h-0.495l-0.934 4.241h0.604l0.177-0.911h0.824l0.178 0.911h0.604l-0.957-4.241zM15.821 28.486l0.297-1.537h0.011l0.295 1.537h-0.604zM20.282 28.288h-0.011l-0.913-2.554h-0.58v4.241h0.604v-2.55h0.012l0.923 2.549h0.568v-4.24h-0.604v2.554zM23.974 25.734l-0.486 1.686h-0.012l-0.486-1.686h-0.639l0.83 2.448v1.792h0.604v-1.792l0.83-2.448h-0.64zM0.001 31.172h0.291v0.817h0.198v-0.817h0.289v-0.167h-0.778v0.168zM2.449 31.004l-0.382 0.985h0.21l0.081-0.224h0.392l0.084 0.224h0.215l-0.391-0.985h-0.21zM2.418 31.599l0.134-0.365 0.134 0.365h-0.268zM4.869 31.625h0.228v0.127c-0.063 0.051-0.145 0.083-0.234 0.083h-0c-0.004 0-0.009 0-0.014 0-0.079 0-0.149-0.037-0.195-0.094l-0-0c-0.046-0.065-0.073-0.147-0.073-0.234 0-0.008 0-0.016 0.001-0.023l-0 0.001c0-0.219 0.095-0.329 0.283-0.329 0.006-0.001 0.014-0.001 0.021-0.001 0.097 0 0.178 0.067 0.201 0.157l0 0.001 0.194-0.038c-0.042-0.192-0.18-0.289-0.417-0.289-0.004-0-0.008-0-0.013-0-0.127 0-0.244 0.048-0.331 0.127l0-0c-0.088 0.087-0.143 0.208-0.143 0.342 0 0.013 0 0.026 0.002 0.038l-0-0.002c-0 0.007-0 0.015-0 0.023 0 0.132 0.048 0.254 0.127 0.347l-0.001-0.001c0.087 0.090 0.209 0.146 0.343 0.146 0.011 0 0.021-0 0.032-0.001l-0.001 0c0.005 0 0.010 0 0.016 0 0.155 0 0.296-0.060 0.402-0.157l-0 0v-0.388h-0.427v0.166zM7.34 31.004h-0.199v0.985h0.689v-0.167h-0.49v-0.817zM9.43 31.004h-0.199v0.985h0.199v-0.985zM11.472 31.661l-0.404-0.657h-0.193v0.985h0.185v-0.643l0.396 0.643h0.198v-0.985h-0.182v0.658zM13.319 31.555h0.491v-0.167h-0.491v-0.215h0.527v-0.168h-0.727v0.985h0.747v-0.167h-0.548v-0.267zM17.797 31.392h-0.388v-0.388h-0.198v0.984h0.198v-0.431h0.388v0.431h0.198v-0.985h-0.198v0.388zM19.654 31.555h0.492v-0.167h-0.492v-0.215h0.529v-0.168h-0.726v0.985h0.746v-0.167h-0.548v-0.267zM22.173 31.555c0.172-0.027 0.259-0.118 0.259-0.274 0.001-0.008 0.002-0.018 0.002-0.028 0-0.079-0.038-0.148-0.098-0.191l-0.001-0c-0.073-0.037-0.159-0.059-0.25-0.059-0.014 0-0.027 0-0.040 0.001l0.002-0h-0.417v0.984h0.198v-0.412h0.039c0.005-0 0.010-0 0.016-0 0.039 0 0.076 0.008 0.109 0.023l-0.002-0.001c0.029 0.018 0.053 0.042 0.070 0.072l0.215 0.313h0.236l-0.12-0.192c-0.054-0.096-0.128-0.175-0.215-0.235l-0.002-0.002zM21.974 31.419h-0.146v-0.247h0.156c0.012-0.001 0.027-0.002 0.042-0.002 0.057 0 0.112 0.009 0.163 0.026l-0.004-0.001c0.026 0.024 0.043 0.058 0.043 0.096 0 0.042-0.020 0.080-0.052 0.104l-0 0c-0.049 0.016-0.106 0.025-0.164 0.025-0.013 0-0.026-0-0.039-0.001l0.002 0zM24.073 31.555h0.49v-0.167h-0.491v-0.215h0.529v-0.168h-0.728v0.985h0.747v-0.167h-0.548v-0.267z"></path>
</symbol>
<symbol id="icon-logo3" viewBox="0 0 31 32">
<path  d="M4.723 31.105c0.023 0.001 0.044 0.010 0.060 0.025v0l0.153 0.161c-0.119 0.13-0.266 0.234-0.431 0.304-0.194 0.077-0.401 0.115-0.61 0.109-0.009 0-0.020 0-0.031 0-0.196 0-0.382-0.038-0.554-0.106l0.010 0.004c-0.332-0.134-0.588-0.397-0.709-0.725l-0.003-0.009c-0.061-0.164-0.097-0.353-0.097-0.55 0-0.007 0-0.015 0-0.022v0.001c-0-0.007-0-0.015-0-0.023 0-0.198 0.038-0.387 0.108-0.56l-0.004 0.010c0.067-0.165 0.168-0.316 0.298-0.444 0.13-0.127 0.287-0.225 0.459-0.29 0.188-0.070 0.389-0.104 0.591-0.102 0.188-0.004 0.375 0.027 0.55 0.093 0.151 0.063 0.29 0.149 0.412 0.257l-0.129 0.171c-0.009 0.012-0.020 0.023-0.032 0.031l-0 0c-0.013 0.009-0.028 0.014-0.045 0.014-0.002 0-0.004-0-0.006-0l0 0c-0.021-0.001-0.040-0.008-0.056-0.019l0 0-0.068-0.045-0.096-0.059c-0.087-0.046-0.189-0.082-0.296-0.101l-0.006-0.001c-0.063-0.011-0.135-0.018-0.209-0.018-0.007 0-0.013 0-0.020 0h0.001c-0.005-0-0.010-0-0.016-0-0.147 0-0.288 0.028-0.417 0.079l0.008-0.003c-0.13 0.051-0.241 0.124-0.333 0.216l0-0c-0.095 0.099-0.169 0.216-0.216 0.342-0.054 0.145-0.081 0.298-0.079 0.453-0.002 0.156 0.025 0.313 0.079 0.46 0.046 0.126 0.119 0.242 0.212 0.341 0.088 0.093 0.196 0.165 0.318 0.212 0.125 0.049 0.259 0.074 0.394 0.073 0.078 0.001 0.156-0.004 0.234-0.015 0.127-0.015 0.247-0.057 0.354-0.122 0.054-0.034 0.104-0.071 0.151-0.113 0.019-0.017 0.044-0.029 0.072-0.030h0zM9.145 30.297c0.002 0.194-0.033 0.387-0.103 0.568-0.067 0.172-0.165 0.319-0.288 0.44l-0 0c-0.126 0.123-0.276 0.221-0.444 0.286l-0.009 0.003c-0.173 0.065-0.373 0.102-0.582 0.102s-0.409-0.037-0.594-0.106l0.012 0.004c-0.175-0.069-0.325-0.167-0.45-0.29l0 0c-0.123-0.123-0.222-0.271-0.288-0.436l-0.003-0.009c-0.065-0.169-0.103-0.364-0.103-0.568s0.038-0.399 0.107-0.579l-0.004 0.011c0.065-0.166 0.164-0.318 0.29-0.447 0.126-0.119 0.276-0.214 0.441-0.276l0.009-0.003c0.173-0.066 0.373-0.104 0.582-0.104s0.409 0.038 0.594 0.108l-0.012-0.004c0.17 0.066 0.324 0.164 0.452 0.29 0.127 0.127 0.224 0.275 0.289 0.439 0.071 0.182 0.106 0.376 0.104 0.571zM8.743 30.297c0-0.007 0-0.016 0-0.024 0-0.155-0.027-0.303-0.076-0.441l0.003 0.009c-0.087-0.256-0.278-0.457-0.522-0.554l-0.006-0.002c-0.126-0.047-0.271-0.075-0.423-0.075s-0.297 0.027-0.432 0.078l0.009-0.003c-0.251 0.099-0.443 0.299-0.528 0.55l-0.002 0.006c-0.097 0.298-0.097 0.615 0 0.912 0.087 0.256 0.279 0.457 0.524 0.552l0.006 0.002c0.273 0.097 0.573 0.097 0.846 0 0.124-0.048 0.234-0.121 0.324-0.214 0.092-0.1 0.162-0.216 0.205-0.341 0.052-0.147 0.076-0.301 0.073-0.456zM12.162 30.776l0.041 0.102c0.015-0.036 0.028-0.069 0.044-0.102 0.017-0.040 0.034-0.073 0.052-0.105l-0.002 0.005 0.978-1.694c0.019-0.030 0.037-0.048 0.056-0.053 0.020-0.006 0.043-0.009 0.066-0.009 0.005 0 0.010 0 0.015 0l-0.001-0h0.289v2.755h-0.342v-2.111c-0.001-0.014-0.001-0.031-0.001-0.048s0.001-0.033 0.001-0.050l-0 0.002-0.984 1.718c-0.013 0.026-0.033 0.048-0.057 0.062l-0.001 0c-0.023 0.014-0.052 0.022-0.082 0.022-0.001 0-0.002 0-0.002-0h-0.055c-0.030 0.001-0.060-0.007-0.084-0.022s-0.044-0.036-0.057-0.062l-0-0.001-1.013-1.73v2.213h-0.331v-2.75h0.289c0.004-0 0.009-0 0.014-0 0.024 0 0.046 0.003 0.068 0.010l-0.002-0c0.024 0.011 0.042 0.029 0.053 0.052l0 0.001 0.999 1.696c0.018 0.028 0.035 0.060 0.048 0.094l0.001 0.004zM15.843 30.64v1.032h-0.383v-2.751h0.854c0.010-0 0.021-0 0.033-0 0.158 0 0.311 0.022 0.456 0.063l-0.012-0.003c0.124 0.034 0.239 0.092 0.337 0.171 0.085 0.074 0.15 0.167 0.191 0.27 0.045 0.112 0.067 0.232 0.066 0.352 0.002 0.121-0.022 0.24-0.071 0.352-0.049 0.109-0.119 0.201-0.205 0.274l-0.001 0.001c-0.095 0.080-0.209 0.143-0.333 0.181l-0.007 0.002c-0.149 0.045-0.305 0.067-0.461 0.064l-0.463-0.007zM15.843 30.344h0.464c0.1 0.002 0.201-0.013 0.296-0.042 0.083-0.027 0.154-0.068 0.215-0.12l-0.001 0.001c0.056-0.049 0.1-0.11 0.129-0.178l0.001-0.003c0.029-0.066 0.046-0.144 0.046-0.225 0-0.003-0-0.005-0-0.008v0c0-0.008 0.001-0.018 0.001-0.028 0-0.071-0.015-0.138-0.041-0.199l0.001 0.003c-0.032-0.074-0.077-0.137-0.133-0.188l-0-0c-0.126-0.094-0.285-0.15-0.457-0.15-0.020 0-0.040 0.001-0.060 0.002l0.003-0h-0.464v1.134zM20.989 31.675h-0.302c-0.002 0-0.004 0-0.006 0-0.030 0-0.057-0.010-0.079-0.026l0 0c-0.021-0.017-0.038-0.038-0.049-0.063l-0-0.001-0.26-0.665h-1.307l-0.27 0.665c-0.011 0.025-0.027 0.046-0.047 0.061l-0 0c-0.022 0.017-0.051 0.028-0.082 0.028-0.002 0-0.003-0-0.005-0h-0.302l1.148-2.756h0.398l1.164 2.756zM19.094 30.652h1.079l-0.455-1.122c-0.030-0.071-0.060-0.157-0.083-0.245l-0.003-0.013-0.044 0.144c-0.015 0.049-0.029 0.088-0.045 0.126l0.003-0.009-0.452 1.119zM22.642 28.932c0.023 0.013 0.043 0.030 0.058 0.050l1.675 2.076v-2.139h0.342v2.756h-0.191c-0.001 0-0.003 0-0.005 0-0.027 0-0.052-0.006-0.074-0.017l0.001 0c-0.024-0.014-0.044-0.031-0.061-0.051l-0-0-1.674-2.075c0.002 0.031 0.002 0.063 0 0.095v2.049h-0.342v-2.757h0.203c0.024 0 0.047 0.004 0.068 0.013zM27.54 30.579v1.094h-0.383v-1.094l-1.058-1.66h0.342c0.002-0 0.005-0 0.008-0 0.028 0 0.054 0.009 0.075 0.024l-0-0c0.021 0.018 0.038 0.038 0.052 0.061l0.001 0.001 0.662 1.070c0.026 0.045 0.049 0.088 0.068 0.128s0.034 0.078 0.048 0.116l0.050-0.118c0.021-0.049 0.043-0.090 0.068-0.13l-0.002 0.004 0.653-1.078c0.014-0.022 0.031-0.042 0.050-0.059l0-0c0.020-0.017 0.047-0.027 0.076-0.027 0.002 0 0.004 0 0.006 0h0.346l-1.061 1.667zM11.973 24.294c0.167 0.020 0.335 0.037 0.506 0.051 2.582-1.101 4.768-2.902 6.281-5.18s2.29-4.93 2.231-7.625l-2.847-2.712c0.189 0.894 0.297 1.921 0.297 2.974 0 2.015-0.396 3.938-1.115 5.694l0.036-0.1c-1.090 2.731-2.957 5.12-5.39 6.899z"></path>
<path  d="M10.956 24.169l0.077 0.015c2.6-1.773 4.584-4.247 5.692-7.104 0.627-1.564 0.991-3.378 0.991-5.276 0-1.296-0.17-2.553-0.488-3.749l0.023 0.101-4.055-3.862c1.269 2.397 2.015 5.239 2.015 8.256 0 0.701-0.040 1.393-0.119 2.074l0.008-0.083c-0.397 3.519-1.834 6.857-4.144 9.629zM24.706 14.725c-0.688 2.962-2.361 5.632-4.771 7.616-0.665 0.553-1.406 1.066-2.191 1.511l-0.075 0.039c2.039-0.578 3.804-1.556 5.285-2.851l-0.016 0.013c1.466-1.282 2.625-2.875 3.381-4.679l0.031-0.084-1.645-1.565z"></path>
<path  d="M24.062 14.289l-2.341-2.23c-0.053 2.681-0.865 5.162-2.23 7.249l0.032-0.053c-1.394 2.169-3.373 3.944-5.73 5.137h0.012c0.525 0 1.049-0.030 1.572-0.089 2.251-0.884 4.15-2.237 5.649-3.95l0.014-0.017c1.454-1.661 2.512-3.704 3.005-5.959l0.016-0.089zM11.295 2.664l-2.793-2.664c-2.497 0.919-4.644 2.535-6.161 4.637s-2.333 4.59-2.341 7.139c0.010 2.818 1.005 5.552 2.829 7.77s4.372 3.793 7.242 4.477c2.562-2.973 4.061-6.647 4.282-10.488s-0.851-7.648-3.059-10.87zM30.514 13.879c-0.010-3.343-1.409-6.547-3.89-8.911s-5.844-3.697-9.353-3.706c-1.622-0.002-3.23 0.284-4.741 0.841l17.1 16.291c0.559-1.335 0.884-2.886 0.884-4.513 0-0 0-0.001 0-0.001v0z"></path>
</symbol>
<symbol id="icon-logo4" viewBox="0 0 60 32">
<path  d="M9.231 9.548h-0.002c-1.684 0-3.049 1.331-3.049 2.971v0.002c0 1.64 1.365 2.971 3.049 2.971h0.002c1.684 0 3.049-1.331 3.049-2.971v-0.002c0-1.64-1.365-2.97-3.049-2.97zM31.734 8.599c-0.005-2.28-0.936-4.464-2.59-6.076-1.652-1.611-3.893-2.519-6.232-2.525-2.339 0.004-4.582 0.912-6.236 2.523s-2.586 3.797-2.59 6.077v12.567s17.647-1.915 17.649-12.566v-0.002zM0 25.291c0.008 1.659 0.697 3.156 1.801 4.226l0.002 0.001c1.121 1.087 2.65 1.757 4.337 1.758h0c1.686-0.001 3.216-0.671 4.338-1.759l-0.002 0.002c1.106-1.072 1.795-2.567 1.803-4.224v-8.747s-12.279 1.335-12.279 8.744zM6.14 26.858c-0.001 0-0.002 0-0.003 0-0.331 0-0.639-0.098-0.897-0.267l0.006 0.004c-0.261-0.171-0.465-0.41-0.588-0.693l-0.004-0.010c-0.077-0.177-0.122-0.383-0.122-0.599 0-0.108 0.011-0.214 0.033-0.316l-0.002 0.010c0.063-0.304 0.216-0.584 0.441-0.802 0.22-0.213 0.5-0.365 0.813-0.427l0.010-0.002c0.312-0.061 0.635-0.030 0.929 0.089s0.545 0.319 0.722 0.577c0.17 0.244 0.271 0.546 0.271 0.872 0 0.216-0.045 0.422-0.125 0.609l0.004-0.010c-0.080 0.191-0.199 0.365-0.348 0.511s-0.327 0.262-0.522 0.341c-0.182 0.076-0.394 0.12-0.616 0.12-0 0-0 0-0.001 0h0v-0.006zM18.674 25.886h-1.256v1.297h-0.655v-3.174h2.068v0.53h-1.413v0.819h1.256v0.528zM21.818 25.668c0 0.313-0.056 0.587-0.166 0.822s-0.269 0.417-0.476 0.545c-0.194 0.121-0.43 0.192-0.682 0.192-0.009 0-0.017-0-0.025-0l0.001 0c-0.263 0-0.498-0.063-0.704-0.19-0.209-0.131-0.373-0.314-0.477-0.533l-0.003-0.008c-0.109-0.23-0.172-0.499-0.172-0.783 0-0.010 0-0.020 0-0.029l-0 0.001v-0.158c0-0.313 0.056-0.588 0.168-0.825 0.113-0.238 0.272-0.421 0.477-0.547 0.206-0.128 0.442-0.192 0.707-0.192s0.499 0.064 0.704 0.192c0.206 0.127 0.365 0.309 0.477 0.547s0.17 0.511 0.17 0.822v0.141zM21.156 25.524c0-0.333-0.060-0.586-0.179-0.759-0.106-0.157-0.284-0.26-0.485-0.26-0.009 0-0.018 0-0.027 0.001l0.001-0c-0.007-0-0.016-0-0.024-0-0.201 0-0.378 0.102-0.482 0.256l-0.001 0.002c-0.119 0.17-0.18 0.42-0.182 0.75v0.155c0 0.325 0.060 0.576 0.179 0.755s0.291 0.268 0.515 0.268c0.008 0 0.017 0.001 0.026 0.001 0.2 0 0.375-0.101 0.479-0.255l0.001-0.002c0.118-0.173 0.177-0.424 0.179-0.755v-0.155zM23.939 26.35c0-0.005 0-0.012 0-0.018 0-0.108-0.051-0.204-0.131-0.264l-0.001-0.001c-0.087-0.067-0.244-0.137-0.47-0.21-0.209-0.065-0.388-0.139-0.558-0.227l0.019 0.009c-0.36-0.195-0.541-0.457-0.541-0.787 0-0.171 0.048-0.325 0.144-0.459s0.236-0.24 0.417-0.316c0.182-0.075 0.385-0.113 0.61-0.113s0.429 0.042 0.606 0.124c0.178 0.082 0.315 0.197 0.412 0.347 0.099 0.15 0.149 0.32 0.149 0.511h-0.655c0-0.146-0.045-0.258-0.137-0.338-0.092-0.082-0.22-0.123-0.386-0.123-0.16 0-0.284 0.034-0.372 0.103-0.082 0.058-0.134 0.152-0.134 0.259 0 0.003 0 0.005 0 0.008v-0c0 0.103 0.052 0.189 0.155 0.259 0.105 0.070 0.258 0.135 0.461 0.197 0.372 0.112 0.643 0.251 0.813 0.417s0.255 0.372 0.255 0.619c0 0.275-0.104 0.491-0.312 0.648s-0.488 0.234-0.84 0.234c-0.244 0-0.467-0.045-0.667-0.133-0.189-0.080-0.344-0.207-0.458-0.365l-0.002-0.003c-0.099-0.147-0.157-0.328-0.157-0.522 0-0.006 0-0.013 0-0.019v0.001h0.656c0 0.35 0.21 0.525 0.628 0.525 0.156 0 0.277-0.031 0.365-0.094 0.079-0.057 0.131-0.149 0.131-0.253 0-0.005-0-0.009-0-0.014l0 0.001zM27.43 24.539h-0.972v2.644h-0.654v-2.644h-0.959v-0.53h2.586v0.53zM29.716 25.808h-1.256v0.85h1.474v0.525h-2.129v-3.174h2.124v0.53h-1.47v0.756h1.256v0.513zM31.493 26.021h-0.521v1.162h-0.655v-3.174h1.18c0.374 0 0.664 0.083 0.868 0.251s0.305 0.403 0.305 0.709c0 0.216-0.048 0.397-0.141 0.543-0.105 0.152-0.25 0.271-0.419 0.342l-0.006 0.002 0.687 1.297v0.031h-0.703l-0.595-1.162zM30.972 25.491h0.528c0.164 0 0.291-0.042 0.381-0.124 0.084-0.082 0.136-0.197 0.136-0.323 0-0.008-0-0.017-0.001-0.025l0 0.001c0-0.15-0.043-0.268-0.129-0.353-0.084-0.086-0.214-0.129-0.39-0.129h-0.526v0.953zM34.936 26.064v1.119h-0.655v-3.174h1.239c0.238 0 0.447 0.043 0.628 0.131s0.321 0.211 0.418 0.372c0.097 0.16 0.146 0.342 0.146 0.548 0 0.311-0.106 0.557-0.32 0.737-0.212 0.179-0.506 0.268-0.883 0.268h-0.573zM34.936 25.535h0.584c0.173 0 0.304-0.041 0.394-0.123 0.092-0.081 0.138-0.197 0.138-0.348 0-0.007 0.001-0.015 0.001-0.023 0-0.137-0.053-0.262-0.139-0.355l0 0c-0.092-0.096-0.218-0.145-0.38-0.149h-0.599v0.997zM39.075 25.808h-1.256v0.85h1.474v0.525h-2.129v-3.174h2.124v0.53h-1.469v0.756h1.256v0.513zM42.11 24.539h-0.972v2.644h-0.655v-2.644h-0.959v-0.53h2.586v0.53zM44.395 25.808h-1.256v0.85h1.474v0.525h-2.128v-3.174h2.124v0.53h-1.47v0.756h1.256v0.513zM46.172 26.021h-0.521v1.162h-0.654v-3.174h1.18c0.375 0 0.665 0.083 0.868 0.251s0.305 0.403 0.305 0.709c0 0.216-0.047 0.397-0.141 0.543-0.105 0.152-0.25 0.271-0.419 0.342l-0.006 0.002 0.686 1.297v0.031h-0.702l-0.595-1.162zM45.651 25.491h0.528c0.164 0 0.29-0.042 0.381-0.124 0.084-0.082 0.135-0.196 0.135-0.322 0-0.009-0-0.017-0.001-0.026l0 0.001c0-0.15-0.042-0.268-0.128-0.353-0.085-0.086-0.214-0.129-0.391-0.129h-0.525v0.953zM49.496 26.35c0-0.005 0-0.012 0-0.018 0-0.108-0.051-0.204-0.131-0.264l-0.001-0.001c-0.087-0.067-0.244-0.137-0.47-0.21-0.209-0.065-0.388-0.139-0.558-0.227l0.019 0.009c-0.36-0.195-0.541-0.457-0.541-0.787 0-0.171 0.048-0.325 0.144-0.459s0.236-0.24 0.417-0.316c0.181-0.075 0.385-0.113 0.61-0.113s0.429 0.042 0.606 0.124c0.177 0.082 0.315 0.197 0.412 0.347 0.099 0.15 0.148 0.32 0.148 0.511h-0.654c0-0.146-0.045-0.258-0.137-0.338-0.092-0.082-0.22-0.123-0.386-0.123-0.16 0-0.284 0.034-0.373 0.103-0.081 0.058-0.133 0.152-0.133 0.258 0 0.003 0 0.006 0 0.008v-0c0 0.103 0.052 0.189 0.155 0.259 0.105 0.070 0.258 0.135 0.46 0.197 0.372 0.112 0.644 0.251 0.813 0.417s0.255 0.372 0.255 0.619c0 0.275-0.104 0.491-0.312 0.648s-0.487 0.234-0.84 0.234c-0.244 0-0.467-0.045-0.667-0.133-0.188-0.080-0.344-0.207-0.458-0.365l-0.002-0.003c-0.099-0.147-0.157-0.328-0.157-0.522 0-0.006 0-0.013 0-0.019v0.001h0.656c0 0.35 0.21 0.525 0.628 0.525 0.156 0 0.277-0.031 0.365-0.094 0.079-0.057 0.131-0.149 0.131-0.253 0-0.005-0-0.009-0-0.014l0 0.001z"></path>
</symbol>
<symbol id="icon-logo5" viewBox="0 0 40 32">
<path  d="M3.056 26.747c0.157 0.194 0.24 0.438 0.236 0.688 0.001 0.016 0.001 0.035 0.001 0.053 0 0.324-0.141 0.615-0.365 0.815l-0.001 0.001c-0.304 0.231-0.681 0.343-1.062 0.317h-1.865v-4.361h1.827c0.031-0.002 0.067-0.003 0.103-0.003 0.341 0 0.657 0.11 0.914 0.297l-0.004-0.003c0.218 0.184 0.355 0.458 0.355 0.763 0 0.018-0.001 0.037-0.002 0.055l0-0.003c0.011 0.24-0.065 0.477-0.212 0.667-0.142 0.173-0.338 0.293-0.556 0.34 0.247 0.046 0.471 0.177 0.631 0.373zM0.868 26.088h0.78c0.178 0.014 0.354-0.038 0.497-0.145 0.104-0.095 0.169-0.232 0.169-0.383 0-0.015-0.001-0.030-0.002-0.045l0 0.002c0.001-0.011 0.001-0.024 0.001-0.037 0-0.153-0.064-0.291-0.167-0.389l-0-0c-0.124-0.093-0.281-0.15-0.45-0.15-0.021 0-0.043 0.001-0.064 0.003l0.003-0h-0.767v1.144zM2.222 27.761c0.114-0.1 0.186-0.246 0.186-0.408 0-0.012-0-0.024-0.001-0.036l0 0.002c0.001-0.010 0.001-0.021 0.001-0.032 0-0.166-0.073-0.314-0.189-0.416l-0.001-0.001c-0.132-0.099-0.299-0.159-0.48-0.159-0.018 0-0.036 0.001-0.054 0.002l0.002-0h-0.818v1.199h0.829c0.187 0.011 0.372-0.042 0.524-0.151zM6.791 28.622l-1.017-1.704h-0.382v1.704h-0.874v-4.361h1.655c0.034-0.003 0.074-0.004 0.114-0.004 0.396 0 0.76 0.142 1.042 0.377l-0.003-0.002c0.245 0.251 0.397 0.595 0.397 0.974 0 0.313-0.103 0.601-0.277 0.834l0.003-0.004c-0.204 0.235-0.483 0.392-0.789 0.443l1.083 1.743h-0.951zM5.392 26.323h0.715c0.497 0 0.745-0.22 0.745-0.66 0.001-0.011 0.001-0.024 0.001-0.037 0-0.176-0.070-0.336-0.184-0.453l0 0c-0.133-0.112-0.306-0.18-0.496-0.18-0.024 0-0.047 0.001-0.070 0.003l0.003-0h-0.724l0.009 1.328zM11.569 27.744h-1.742l-0.308 0.878h-0.917l1.6-4.313h0.991l1.593 4.312h-0.917l-0.301-0.878zM11.336 27.083l-0.637-1.841-0.637 1.841h1.273zM17.552 28.622h-0.869l-1.946-2.965v2.965h-0.865v-4.361h0.865l1.946 2.982v-2.982h0.868v4.361zM22.505 27.578c-0.182 0.33-0.45 0.593-0.775 0.765l-0.010 0.005c-0.378 0.191-0.797 0.286-1.22 0.274h-1.546v-4.361h1.546c0.020-0.001 0.043-0.001 0.067-0.001 0.42 0 0.817 0.1 1.168 0.277l-0.015-0.007c0.332 0.168 0.606 0.433 0.786 0.761 0.171 0.333 0.272 0.727 0.272 1.144s-0.1 0.811-0.278 1.158l0.007-0.014zM21.511 27.473c0.239-0.278 0.384-0.642 0.384-1.041s-0.145-0.763-0.386-1.043l0.002 0.002c-0.264-0.232-0.612-0.374-0.993-0.374-0.033 0-0.066 0.001-0.098 0.003l0.004-0h-0.603v2.823h0.603c0.028 0.002 0.061 0.003 0.094 0.003 0.381 0 0.729-0.142 0.994-0.375l-0.002 0.001zM12.112 0.001s11.203 4.246 10.966 10.391v10.393s-11.194-4.249-10.96-10.393l-0.005-10.391zM33.057 18.352c2.005-1.402 4.429-2.346 7.050-2.628l0.068-0.006v-3.253c-2.995 1.181-5.438 3.227-7.082 5.827l-0.035 0.060z"></path>
<path  d="M31.786 19.332c1.749-3.487 4.694-6.159 8.284-7.514l0.105-0.035v-9.374s-15.954 6.049-15.616 14.799v14.797s0.711-0.27 1.83-0.778c0-0.473 0-0.95 0.050-1.43 0.35-4.206 2.343-7.889 5.327-10.448l0.021-0.017z"></path>
<path  d="M30.269 24.829c0.084-1.026 0.27-2.041 0.558-3.030-2.038 2.401-3.303 5.515-3.378 8.922l-0 0.016c1.299-0.625 2.304-1.166 3.287-1.742l-0.218 0.118c-0.191-0.908-0.3-1.952-0.3-3.021 0-0.445 0.019-0.885 0.056-1.32l-0.004 0.057zM30.903 24.883c-0.031 0.359-0.049 0.777-0.049 1.2 0 0.948 0.090 1.874 0.261 2.772l-0.015-0.092c4.359-2.619 9.257-6.665 9.068-11.554v-0.426c-3.246 0.375-6.108 1.789-8.298 3.895l0.005-0.005c-0.501 1.235-0.847 2.665-0.968 4.158l-0.003 0.052z"></path>
</symbol>
<symbol id="icon-logo6" viewBox="0 0 62 32">
<path  d="M31.126 14.856c-0.251-0.36-0.401-0.806-0.401-1.287 0-0.051 0.002-0.101 0.005-0.15l-0 0.007v-2.075c0-0.637 0.132-1.12 0.394-1.451s0.715-0.495 1.356-0.494c0.602 0 1.030 0.141 1.282 0.422 0.276 0.359 0.41 0.798 0.379 1.241v0.487h-1.077v-0.494c0-0.019 0.001-0.041 0.001-0.064 0-0.148-0.012-0.293-0.034-0.435l0.002 0.016c-0.017-0.115-0.073-0.214-0.153-0.287l-0-0c-0.095-0.071-0.215-0.113-0.345-0.113-0.016 0-0.032 0.001-0.048 0.002l0.002-0c-0.014-0.001-0.029-0.002-0.045-0.002-0.137 0-0.264 0.045-0.367 0.121l0.002-0.001c-0.090 0.081-0.154 0.19-0.178 0.313l-0.001 0.004c-0.031 0.169-0.045 0.341-0.042 0.513v2.518c-0.002 0.029-0.003 0.062-0.003 0.096 0 0.222 0.052 0.432 0.145 0.619l-0.004-0.008c0.055 0.075 0.128 0.134 0.212 0.171l0.003 0.001c0.063 0.027 0.136 0.044 0.213 0.044 0.023 0 0.045-0.001 0.067-0.004l-0.003 0c0.013 0.001 0.029 0.002 0.044 0.002 0.128 0 0.245-0.044 0.338-0.117l-0.001 0.001c0.084-0.079 0.142-0.184 0.16-0.303l0-0.003c0.026-0.167 0.037-0.336 0.034-0.504v-0.511h1.077v0.466c0.003 0.038 0.004 0.083 0.004 0.128 0 0.442-0.141 0.85-0.381 1.183l0.004-0.006c-0.247 0.308-0.669 0.462-1.288 0.462s-1.088-0.164-1.354-0.506zM35.61 14.877c-0.272-0.323-0.408-0.794-0.408-1.416v-2.183c0-0.616 0.136-1.083 0.408-1.399s0.726-0.474 1.364-0.473c0.633 0 1.085 0.158 1.358 0.473 0.271 0.317 0.41 0.783 0.41 1.399v2.183c0 0.616-0.139 1.089-0.415 1.414-0.277 0.325-0.727 0.487-1.354 0.487s-1.090-0.164-1.364-0.485zM37.476 14.353c0.097-0.202 0.142-0.424 0.129-0.646v-2.672c0.001-0.021 0.002-0.047 0.002-0.072 0-0.204-0.048-0.397-0.133-0.569l0.003 0.007c-0.056-0.076-0.13-0.136-0.216-0.173l-0.003-0.001c-0.062-0.027-0.135-0.042-0.211-0.042-0.026 0-0.051 0.002-0.076 0.005l0.003-0c-0.022-0.003-0.047-0.005-0.073-0.005-0.077 0-0.15 0.016-0.216 0.044l0.004-0.001c-0.090 0.038-0.164 0.098-0.22 0.172l-0.001 0.001c-0.098 0.197-0.143 0.415-0.129 0.633v2.685c-0.014 0.223 0.031 0.444 0.129 0.646 0.062 0.067 0.138 0.121 0.222 0.158l0.004 0.002c0.082 0.036 0.177 0.057 0.277 0.057s0.195-0.021 0.281-0.059l-0.005 0.002c0.089-0.039 0.164-0.093 0.226-0.16l0-0v-0.013zM40.038 9.469h1.16l0.872 4.028 0.892-4.028h1.128l0.113 5.813h-0.833l-0.089-4.040-0.861 4.040h-0.669l-0.892-4.055-0.083 4.055h-0.843l0.104-5.813zM45.503 9.469h1.806c1.040 0 1.56 0.55 1.56 1.651 0 1.054-0.548 1.58-1.643 1.579h-0.614v2.583h-1.115l0.007-5.813zM47.046 11.953c0.11 0.014 0.222 0.004 0.327-0.028 0.106-0.031 0.204-0.085 0.286-0.155 0.128-0.197 0.184-0.427 0.16-0.657 0.001-0.020 0.001-0.044 0.001-0.067 0-0.163-0.020-0.322-0.057-0.474l0.003 0.014c-0.017-0.062-0.045-0.115-0.083-0.161l0.001 0.001c-0.039-0.047-0.086-0.087-0.139-0.116l-0.002-0.001c-0.129-0.059-0.279-0.094-0.437-0.094-0.021 0-0.042 0.001-0.062 0.002l0.003-0h-0.433v1.736h0.433zM50.478 9.469h1.197l1.229 5.813h-1.039l-0.243-1.341h-1.068l-0.25 1.341h-1.055l1.229-5.813zM51.501 13.269l-0.417-2.441-0.417 2.441h0.835zM53.896 9.469h0.779l1.494 3.316v-3.316h0.925v5.813h-0.742l-1.503-3.462v3.462h-0.957l0.002-5.813zM59.262 13.066l-1.242-3.588h1.046l0.758 2.305 0.711-2.305h1.023l-1.226 3.588v2.217h-1.071v-2.217zM32.848 17.824v0.304h-0.91v2.362h-0.381v-2.362h-0.914v-0.304h2.205zM35.699 20.49h-0.294c-0.002 0-0.005 0-0.008 0-0.028 0-0.054-0.010-0.075-0.026l0 0c-0.022-0.015-0.038-0.036-0.048-0.060l-0-0.001-0.263-0.633h-1.262l-0.264 0.633c-0.008 0.028-0.022 0.052-0.040 0.072l0-0c-0.021 0.016-0.047 0.025-0.076 0.025-0.002 0-0.005-0-0.007-0h-0.294l1.115-2.666h0.388l1.128 2.655zM33.853 19.5h1.053l-0.446-1.085c-0.028-0.067-0.057-0.15-0.080-0.236l-0.003-0.014-0.042 0.141-0.040 0.111-0.442 1.083zM37.622 20.228c0.070 0.003 0.139 0.003 0.209 0 0.061-0.006 0.12-0.017 0.179-0.032 0.063-0.015 0.117-0.032 0.169-0.052l-0.009 0.003c0.049-0.019 0.099-0.042 0.15-0.065v-0.6h-0.446c-0.002 0-0.003 0-0.005 0-0.021 0-0.041-0.008-0.055-0.021l0 0c-0.014-0.011-0.022-0.027-0.022-0.046 0-0.001 0-0.002 0-0.003v0-0.205h0.865v1.022c-0.135 0.092-0.292 0.166-0.459 0.214l-0.012 0.003c-0.078 0.023-0.173 0.043-0.269 0.055l-0.009 0.001c-0.096 0.011-0.208 0.017-0.321 0.017-0.002 0-0.003 0-0.005 0h0c-0.004 0-0.008 0-0.013 0-0.197 0-0.386-0.037-0.56-0.103l0.011 0.004c-0.173-0.066-0.321-0.161-0.446-0.279l0.001 0.001c-0.12-0.117-0.218-0.258-0.285-0.414l-0.003-0.008c-0.065-0.159-0.103-0.343-0.103-0.536 0-0.006 0-0.012 0-0.018v0.001c-0-0.005-0-0.011-0-0.017 0-0.195 0.037-0.38 0.105-0.551l-0.004 0.010c0.064-0.158 0.161-0.301 0.287-0.422 0.127-0.12 0.279-0.214 0.446-0.277 0.191-0.068 0.394-0.102 0.598-0.099 0.104 0 0.207 0.007 0.31 0.023 0.090 0.014 0.179 0.036 0.266 0.067 0.078 0.028 0.153 0.063 0.223 0.106 0.069 0.042 0.134 0.088 0.195 0.139l-0.108 0.165c-0.009 0.015-0.021 0.027-0.036 0.036l-0 0c-0.015 0.009-0.032 0.014-0.051 0.014h-0c-0.026-0.001-0.050-0.008-0.070-0.021l0.001 0c-0.044-0.023-0.079-0.043-0.114-0.066l0.005 0.003c-0.042-0.026-0.092-0.050-0.143-0.070l-0.007-0.002c-0.057-0.023-0.126-0.043-0.197-0.058l-0.008-0.001c-0.081-0.015-0.173-0.023-0.268-0.023-0.005 0-0.011 0-0.016 0h0.001c-0.004-0-0.009-0-0.013-0-0.15 0-0.293 0.027-0.425 0.077l0.008-0.003c-0.125 0.047-0.237 0.119-0.328 0.211-0.093 0.096-0.163 0.209-0.207 0.332-0.047 0.132-0.075 0.285-0.075 0.444s0.027 0.312 0.078 0.454l-0.003-0.009c0.049 0.125 0.125 0.24 0.223 0.335 0.092 0.092 0.202 0.163 0.326 0.212 0.142 0.046 0.292 0.064 0.442 0.053zM41.175 20.186h1.218v0.304h-1.59v-2.666h0.381l-0.009 2.362zM43.659 20.489h-0.381v-2.665h0.381v2.666zM45.078 17.836c0.023 0.013 0.042 0.029 0.057 0.048l0 0 1.63 2.010c-0.001-0.014-0.002-0.031-0.002-0.048s0.001-0.033 0.002-0.050l-0 0.002v-1.986h0.332v2.676h-0.191c-0.004 0-0.009 0.001-0.013 0.001-0.025 0-0.049-0.006-0.071-0.016l0.001 0c-0.023-0.014-0.043-0.031-0.060-0.050l-0-0-1.628-2.007v2.072h-0.319v-2.665h0.198c0.022 0 0.043 0.004 0.063 0.013zM49.904 17.824v0.294h-1.351v0.88h1.095v0.282h-1.095v0.91h1.351v0.294h-1.743v-2.66h1.743zM9.951 1.36l16.93 4.551v15.947l-16.929-4.548v-15.95zM8.865 0v18.083l19.099 5.136v-18.081l-19.099-5.137z"></path>
<path  d="M19.101 31.613l-19.101-5.14v-18.081l19.101 5.138v18.084z"></path>
<path  d="M9.182 1.155l16.709 4.494-7.106 6.729-16.711-4.496 7.108-6.727zM8.865 0l-8.865 8.392 19.101 5.138 8.863-8.392-19.099-5.138zM20.176 30.596l7.788-7.375-7.788-2.096v9.471z"></path>
</symbol>
<symbol id="icon-smartphone" viewBox="0 0 20 32">
<path  d="M17.014 0h-14.004c-1.654 0-3.001 1.346-3.001 3.001v26.008c0 1.654 1.346 3.001 3.001 3.001h14.004c1.654 0 3.001-1.346 3.001-3.001v-26.008c0-1.654-1.346-3.001-3.001-3.001zM3.010 2.001h14.004c0.552 0 1 0.448 1 1v0 21.006h-16.005v-21.006c0-0.552 0.448-1 1-1v0zM17.014 30.009h-14.004c-0.552 0-1-0.448-1-1v0-3.001h16.005v3.001c0 0.552-0.448 1-1 1v0z"></path>
<path  d="M4.718 27.486c0.18 0.164 0.293 0.399 0.293 0.66s-0.113 0.497-0.292 0.66l-0.001 0.001c-0.186 0.17-0.435 0.275-0.708 0.275s-0.522-0.104-0.709-0.275l0.001 0.001c-0.18-0.164-0.293-0.399-0.293-0.66s0.113-0.497 0.292-0.66l0.001-0.001c0.186-0.17 0.435-0.275 0.708-0.275s0.522 0.104 0.709 0.275l-0.001-0.001z"></path>
</symbol>
<symbol id="icon-twitter" viewBox="0 0 32 32">
<path  d="M32.019 6.082c-1.101 0.494-2.378 0.858-3.715 1.029l-0.068 0.007c1.361-0.817 2.383-2.079 2.875-3.582l0.013-0.046c-1.198 0.723-2.593 1.274-4.078 1.574l-0.084 0.014c-1.2-1.28-2.902-2.077-4.79-2.077-3.624 0-6.562 2.938-6.562 6.562 0 0.001 0 0.003 0 0.004v-0c0 0.52 0.043 1.021 0.152 1.497-5.458-0.266-10.286-2.882-13.529-6.865-0.564 0.95-0.899 2.093-0.903 3.314v0.001c0 2.273 1.172 4.289 2.915 5.454-1.092-0.030-2.108-0.325-2.996-0.824l0.033 0.017v0.072c0.003 3.167 2.238 5.811 5.216 6.444l0.043 0.008c-0.499 0.136-1.072 0.215-1.663 0.215-0.020 0-0.041-0-0.061-0l0.003 0c-0.419 0-0.844-0.024-1.242-0.112 0.85 2.6 3.263 4.511 6.133 4.572-2.216 1.747-5.048 2.802-8.127 2.802-0.004 0-0.008 0-0.013 0h0.001c-0.018 0-0.040 0-0.062 0-0.532 0-1.056-0.034-1.569-0.099l0.061 0.006c2.828 1.847 6.291 2.946 10.010 2.946 0.021 0 0.042-0 0.063-0h-0.003c12.079 0 18.683-10.006 18.683-18.68 0-0.288-0.010-0.57-0.024-0.848 1.299-0.936 2.392-2.065 3.26-3.357l0.030-0.047z"></path>
</symbol>
<symbol id="icon-email-black" viewBox="0 0 32 32">
<path d="M26.667 5.333h-21.333c-1.467 0-2.653 1.2-2.653 2.667l-0.013 16c0 1.467 1.2 2.667 2.667 2.667h21.333c1.467 0 2.667-1.2 2.667-2.667v-16c0-1.467-1.2-2.667-2.667-2.667zM26.133 11l-9.427 5.893c-0.427 0.267-0.987 0.267-1.413 0l-9.427-5.893c-0.333-0.213-0.533-0.573-0.533-0.96 0-0.893 0.973-1.427 1.733-0.96l8.933 5.587 8.933-5.587c0.76-0.467 1.733 0.067 1.733 0.96 0 0.387-0.2 0.747-0.533 0.96z"></path>
</symbol>
<symbol id="icon-phone-black" viewBox="0 0 32 32">
<path d="M24.882 19.773l-3.268-0.373c-0.785-0.090-1.557 0.18-2.11 0.733l-2.367 2.367c-3.641-1.853-6.626-4.825-8.478-8.478l2.38-2.38c0.553-0.553 0.823-1.325 0.733-2.11l-0.373-3.242c-0.154-1.299-1.248-2.277-2.56-2.277h-2.226c-1.454 0-2.663 1.209-2.573 2.663 0.682 10.987 9.469 19.761 20.443 20.443 1.454 0.090 2.663-1.119 2.663-2.573v-2.226c0.013-1.3-0.965-2.393-2.264-2.547z"></path>
</symbol>
<symbol id="icon-person-black" viewBox="0 0 32 32">
<path d="M16 16c2.947 0 5.333-2.387 5.333-5.333s-2.387-5.333-5.333-5.333c-2.947 0-5.333 2.387-5.333 5.333s2.387 5.333 5.333 5.333zM16 18.667c-3.56 0-10.667 1.787-10.667 5.333v1.333c0 0.733 0.6 1.333 1.333 1.333h18.667c0.733 0 1.333-0.6 1.333-1.333v-1.333c0-3.547-7.107-5.333-10.667-5.333z"></path>
</symbol>
<symbol id="icon-checkbox" viewBox="0 0 34 32">
<path d="M30.341 3.556v24.889h-26.548v-24.889h26.548zM30.341 0h-26.548c-2.086 0-3.793 1.6-3.793 3.556v24.889c0 1.956 1.707 3.556 3.793 3.556h26.548c2.086 0 3.793-1.6 3.793-3.556v-24.889c0-1.956-1.707-3.556-3.793-3.556z"></path>
<path fill="#fff" style="fill: var(--color2, #fff); stroke: var(--color2, #fff)" stroke="#fff" stroke-linejoin="miter" stroke-linecap="butt" stroke-miterlimit="4" stroke-width="0.4267" d="M8.442 16.537l-0.147-0.14-2.205 2.088 7.767 7.41 16.318-15.567-2.19-2.089-14.128 13.465-5.416-5.167z"></path>
</symbol>
<symbol id="icon-send" viewBox="0 0 32 32">
<path fill="#fff" style="fill: var(--color1, #fff)" d="M32 0l-32 18 10.227 3.788 15.773-14.788-11.998 16.186 0.010 0.004-0.012-0.004v8.814l5.735-6.691 7.265 2.691 5-28z"></path>
</symbol>
<symbol id="icon-close_24px" viewBox="0 0 32 32">
<path d="M31.439 3.166l-3.166-3.166-12.553 12.553-12.553-12.553-3.166 3.166 12.553 12.553-12.553 12.553 3.166 3.166 12.553-12.553 12.553 12.553 3.166-3.166-12.553-12.553 12.553-12.553z"></path>
</symbol>
<symbol id="icon-menu_24px" viewBox="0 0 48 32">
<path d="M0 5.333v-5.333h48v5.333h-48zM0 18.667h48v-5.333h-48v5.333zM0 32h48v-5.333h-48v5.333z"></path>
</symbol>
</defs>
</svg>
